<?xml version="1.0" encoding="UTF-8" standalone="no"?>
<svg
   width="128"
   height="128"
   version="1.1"
   id="svg2"
   sodipodi:docname="tray-icon.svg"
   xmlns:inkscape="http://www.inkscape.org/namespaces/inkscape"
   xmlns:sodipodi="http://sodipodi.sourceforge.net/DTD/sodipodi-0.dtd"
   xmlns="http://www.w3.org/2000/svg"
   xmlns:svg="http://www.w3.org/2000/svg">
  <defs
     id="defs2" />
  <sodipodi:namedview
     id="namedview2"
     pagecolor="#ffffff"
     bordercolor="#000000"
     borderopacity="0.25"
     inkscape:showpageshadow="2"
     inkscape:pageopacity="0.0"
     inkscape:pagecheckerboard="0"
     inkscape:deskcolor="#d1d1d1" />
  <g
     transform="translate(0, 108) scale(0.16)"
     id="g2">
    <path
       d="M 433.3,0 H 212.8 q -88.2,0 -130.2,-35 -42,-35 -42,-107.8 v -218.4 q 0,-72.8 42,-107.8 42,-35 130.2,-35 h 175 q 25.2,0 25.2,25.2 v 84.7 q 0,25.2 -25.2,25.2 H 242.2 q -42.7,0 -42.7,35 v 167.3 q 0,34.3 32.2,34.3 h 67.9 v -109.2 q 0,-25.2 25.2,-25.2 h 108.5 q 25.2,0 25.2,25.2 V -25.2 Q 458.5,0 433.3,0 Z"
       id="text1"
       style="font-size:700px;font-family:Bungee"
       aria-label="G" />
    <path
       d="m 480,-334 54,-190.5 q 6,-21 14.5,-35 8.5,-14.5 23.5,-21.5 15,-7.5 39.5,-7.5 H 648 q 25,0 39.5,7.5 14.5,7 23,21.5 9,14 15,35 l 54,190.5 q 3.5,18 -15,18 l -66,0.5 Q 680,-315 678,-333 l -39,-144.5 q -1,-5.5 -3,-7 -1.5,-2 -6,-1.5 -5,-0.5 -7,1.5 -1.5,1.5 -2.5,7 l -39,144.5 q -2,18 -20.5,17.5 l -66,-0.5 q -18.5,0 -15,-18 z"
       id="text2"
       style="font-size:500px;font-family:Bungee"
       aria-label="^" />
  </g>
  <!-- for development only -->
  <!--    <rect-->
  <!--            width="128" height="128"-->
  <!--            fill="none" stroke="white" stroke-width="2"-->
  <!--    />-->
</svg>
